<?xml version="1.0" encoding="UTF-8"?>
<svg version="1.1" xmlns="http://www.w3.org/2000/svg" width="128" height="128">
    <path
        d="M0 0 C4.75224035 2.41080806 8.22826261 6.10396247 11.1875 10.5 C11.1875 11.16 11.1875 11.82 11.1875 12.5 C11.99767578 12.01660156 11.99767578 12.01660156 12.82421875 11.5234375 C17.8007083 9.36832963 24.26369934 9.53924845 29.38671875 11.22265625 C33.20848585 13.27032756 36.0312743 15.7680709 38.1875 19.5 C38.78255578 22.4954503 39.05466046 25.45133248 39.1875 28.5 C39.83976562 28.58636719 40.49203125 28.67273438 41.1640625 28.76171875 C47.34346332 29.75516225 50.88859526 30.88654126 55.1875 35.5 C58.94620906 40.76219269 58.84867332 46.27007108 58.1875 52.5 C56.46157479 57.88082566 52.84454887 61.42534623 48.1875 64.5 C44.41272236 65.79803204 40.55259127 65.66210146 36.60839844 65.67700195 C35.47099968 65.68685875 35.47099968 65.68685875 34.31062317 65.69691467 C31.80603934 65.71659333 29.30151534 65.72829844 26.796875 65.73828125 C25.5099966 65.74439454 25.5099966 65.74439454 24.19712067 65.75063133 C19.65566755 65.77146944 15.11424444 65.78578062 10.57275391 65.79516602 C5.89437604 65.80622265 1.21647481 65.84062028 -3.46173477 65.88033772 C-7.07011774 65.90654584 -10.67838784 65.91486159 -14.2868576 65.91844749 C-16.01075203 65.92330301 -17.73464175 65.93488736 -19.45844269 65.95348549 C-21.87794751 65.9779661 -24.29622826 65.97689615 -26.71582031 65.9699707 C-27.77131325 65.98918579 -27.77131325 65.98918579 -28.84812927 66.00878906 C-34.25864117 65.95270957 -38.34016932 64.40538959 -42.8125 61.5 C-46.75814605 57.34668837 -49.09549453 53.52794325 -49.1875 47.75 C-49.05064962 42.58769938 -48.07437687 38.57508716 -44.8125 34.5 C-41.34375464 31.6314802 -38.38407943 29.5 -33.8125 29.5 C-34.1425 28.51 -34.4725 27.52 -34.8125 26.5 C-35.8084908 18.3687964 -33.25253411 12.62928849 -29.1875 5.75 C-21.05576082 -1.95375291 -10.49810394 -3.98142377 0 0 Z "
        fill="#F3F8FC" transform="translate(59.8125,6.5)" />
    <path
        d="M0 0 C1.03116943 -0.00622879 2.06233887 -0.01245758 3.12475586 -0.01887512 C4.79356812 -0.0050605 4.79356812 -0.0050605 6.49609375 0.0090332 C7.63892822 0.0085347 8.7817627 0.00803619 9.95922852 0.00752258 C12.37680804 0.00986432 14.79438994 0.01959862 17.21191406 0.03613281 C20.91884086 0.05972058 24.62504852 0.05669481 28.33203125 0.05004883 C30.67838972 0.05562557 33.02474515 0.06273543 35.37109375 0.0715332 C36.48363525 0.0706218 37.59617676 0.06971039 38.74243164 0.06877136 C40.28918579 0.08306938 40.28918579 0.08306938 41.8671875 0.09765625 C43.22928345 0.10456734 43.22928345 0.10456734 44.61889648 0.11161804 C46.93359375 0.37231445 46.93359375 0.37231445 49.93359375 2.37231445 C50.3059082 4.2199707 50.3059082 4.2199707 50.296875 6.43481445 C50.2959082 7.62977539 50.2959082 7.62977539 50.29492188 8.84887695 C50.27880859 9.68161133 50.26269531 10.5143457 50.24609375 11.37231445 C50.24931641 12.20504883 50.25253906 13.0377832 50.25585938 13.89575195 C50.2005963 20.1053119 50.2005963 20.1053119 47.93359375 22.37231445 C45.76953125 22.56762695 45.76953125 22.56762695 43.30859375 22.49731445 C42.49132812 22.47926758 41.6740625 22.4612207 40.83203125 22.44262695 C40.20554687 22.41942383 39.5790625 22.3962207 38.93359375 22.37231445 C38.93359375 23.36231445 38.93359375 24.35231445 38.93359375 25.37231445 C40.91927083 25.30721029 42.90494792 25.24210612 44.890625 25.17700195 C46.93359375 25.37231445 46.93359375 25.37231445 49.93359375 27.37231445 C50.12109375 30.99731445 50.12109375 30.99731445 49.93359375 34.37231445 C54.22359375 34.37231445 58.51359375 34.37231445 62.93359375 34.37231445 C62.93359375 23.81231445 62.93359375 13.25231445 62.93359375 2.37231445 C64.25359375 2.37231445 65.57359375 2.37231445 66.93359375 2.37231445 C66.93359375 13.92231445 66.93359375 25.47231445 66.93359375 37.37231445 C61.32359375 37.37231445 55.71359375 37.37231445 49.93359375 37.37231445 C49.93359375 40.01231445 49.93359375 42.65231445 49.93359375 45.37231445 C47.37943452 47.92647368 46.43366251 47.62937442 42.88891602 47.64697266 C41.8376503 47.65650467 40.78638458 47.66603668 39.70326233 47.67585754 C38.56368576 47.67494614 37.42410919 47.67403473 36.25 47.6730957 C35.08355453 47.67738083 33.91710907 47.68166595 32.71531677 47.68608093 C30.24470673 47.69183247 27.77407974 47.69231847 25.3034668 47.68798828 C21.51516933 47.68483035 17.72765383 47.70827131 13.93945312 47.73364258 C11.54296974 47.73591561 9.14648424 47.73661905 6.75 47.7355957 C5.61244766 47.74480545 4.47489532 47.7540152 3.3028717 47.76350403 C1.72124489 47.75416084 1.72124489 47.75416084 0.10766602 47.74462891 C-0.82117905 47.74525833 -1.75002411 47.74588776 -2.70701599 47.74653625 C-5.06640625 47.37231445 -5.06640625 47.37231445 -6.88978577 46.2865448 C-8.06640625 44.37231445 -8.06640625 44.37231445 -8.06640625 37.37231445 C-13.34640625 37.37231445 -18.62640625 37.37231445 -24.06640625 37.37231445 C-24.06640625 25.49231445 -24.06640625 13.61231445 -24.06640625 1.37231445 C-23.07640625 1.37231445 -22.08640625 1.37231445 -21.06640625 1.37231445 C-21.06640625 12.26231445 -21.06640625 23.15231445 -21.06640625 34.37231445 C-16.77640625 34.37231445 -12.48640625 34.37231445 -8.06640625 34.37231445 C-8.06640625 32.39231445 -8.06640625 30.41231445 -8.06640625 28.37231445 C-7.06640625 26.49731445 -7.06640625 26.49731445 -5.06640625 25.37231445 C-2.34762362 25.13100239 0.19280485 25.23752156 2.93359375 25.37231445 C2.93359375 24.38231445 2.93359375 23.39231445 2.93359375 22.37231445 C1.67546875 22.43418945 0.41734375 22.49606445 -0.87890625 22.55981445 C-3.34469812 22.68108291 -4.66004138 22.60882794 -6.8046875 21.3605957 C-8.79330386 18.22683184 -8.49890467 14.96277132 -8.44140625 11.37231445 C-8.45300781 10.64786133 -8.46460938 9.9234082 -8.4765625 9.17700195 C-8.44741299 3.91065777 -8.44741299 3.91065777 -6.8581543 1.66511536 C-4.46467087 -0.06185599 -2.93865327 -0.00203693 0 0 Z "
        fill="#2384CF" transform="translate(44.06640625,75.627685546875)" />
    <path
        d="M0 0 C4.75224035 2.41080806 8.22826261 6.10396247 11.1875 10.5 C11.1875 11.16 11.1875 11.82 11.1875 12.5 C11.99767578 12.01660156 11.99767578 12.01660156 12.82421875 11.5234375 C17.8007083 9.36832963 24.26369934 9.53924845 29.38671875 11.22265625 C33.20848585 13.27032756 36.0312743 15.7680709 38.1875 19.5 C38.78255578 22.4954503 39.05466046 25.45133248 39.1875 28.5 C39.83976562 28.58636719 40.49203125 28.67273438 41.1640625 28.76171875 C47.34346332 29.75516225 50.88859526 30.88654126 55.1875 35.5 C58.94620906 40.76219269 58.84867332 46.27007108 58.1875 52.5 C56.46157479 57.88082566 52.84454887 61.42534623 48.1875 64.5 C44.41272236 65.79803204 40.55259127 65.66210146 36.60839844 65.67700195 C35.47099968 65.68685875 35.47099968 65.68685875 34.31062317 65.69691467 C31.80603934 65.71659333 29.30151534 65.72829844 26.796875 65.73828125 C25.5099966 65.74439454 25.5099966 65.74439454 24.19712067 65.75063133 C19.65566755 65.77146944 15.11424444 65.78578062 10.57275391 65.79516602 C5.89437604 65.80622265 1.21647481 65.84062028 -3.46173477 65.88033772 C-7.07011774 65.90654584 -10.67838784 65.91486159 -14.2868576 65.91844749 C-16.01075203 65.92330301 -17.73464175 65.93488736 -19.45844269 65.95348549 C-21.87794751 65.9779661 -24.29622826 65.97689615 -26.71582031 65.9699707 C-27.77131325 65.98918579 -27.77131325 65.98918579 -28.84812927 66.00878906 C-34.25864117 65.95270957 -38.34016932 64.40538959 -42.8125 61.5 C-46.75814605 57.34668837 -49.09549453 53.52794325 -49.1875 47.75 C-49.05064962 42.58769938 -48.07437687 38.57508716 -44.8125 34.5 C-41.34375464 31.6314802 -38.38407943 29.5 -33.8125 29.5 C-34.1425 28.51 -34.4725 27.52 -34.8125 26.5 C-35.8084908 18.3687964 -33.25253411 12.62928849 -29.1875 5.75 C-21.05576082 -1.95375291 -10.49810394 -3.98142377 0 0 Z M-27.6875 9.5 C-31.91282134 15.46515954 -32.31457731 20.31912682 -31.8125 27.5 C-31.51507883 28.84180086 -31.19369157 30.1795524 -30.8125 31.5 C-32.359375 31.8403125 -32.359375 31.8403125 -33.9375 32.1875 C-38.8139461 33.58218337 -42.10362873 36.24739696 -45.1875 40.3125 C-46.92585701 46.39674955 -45.95881334 51.07415264 -43.37109375 56.640625 C-40.0291209 60.62753997 -36.04006579 62.33317459 -31.02540588 63.0146637 C-29.64811758 63.04110574 -28.27030467 63.04627127 -26.89282227 63.03344727 C-26.13411835 63.04206284 -25.37541443 63.05067841 -24.59371948 63.05955505 C-22.10509359 63.08211357 -19.61760316 63.07549516 -17.12890625 63.06640625 C-15.38687305 63.07164652 -13.6448427 63.07792448 -11.90281677 63.08518982 C-8.25888683 63.09557547 -4.61534784 63.0910594 -0.97143555 63.07641602 C3.68355771 63.05923479 8.3373158 63.08272426 12.99217129 63.11790562 C16.58775411 63.13993404 20.18304388 63.13842498 23.77867317 63.1301403 C25.49417538 63.12932368 27.20969974 63.13613149 28.92513847 63.15091133 C41.4708826 63.41921055 41.4708826 63.41921055 52.1875 57.5 C55.28566208 53.3368447 55.90724953 49.13396748 55.71484375 44.0390625 C54.72243505 39.26079839 52.17254534 36.22016747 48.1875 33.5 C44.5369646 32.32556502 41.00587405 31.77619342 37.1875 31.5 C37.18363281 30.64728516 37.18363281 30.64728516 37.1796875 29.77734375 C36.8972635 24.13827789 35.67361641 21.06202375 31.85546875 16.91015625 C27.66556626 13.36787335 24.06724261 13.14362642 18.73828125 13.23046875 C15.07468342 13.61758705 12.43993543 14.80307717 9.1875 16.5 C9.125625 15.79875 9.06375 15.0975 9 14.375 C7.68644026 9.72701938 5.21159428 6.82094506 1.2421875 4.23046875 C-9.61143424 -1.27414586 -19.65956468 0.49190978 -27.6875 9.5 Z "
        fill="#2585D0" transform="translate(59.8125,6.5)" />
    <path
        d="M0 0 C0.99773438 -0.00315216 1.99546875 -0.00630432 3.0234375 -0.009552 C4.65152344 -0.00651566 4.65152344 -0.00651566 6.3125 -0.00341797 C7.41851562 -0.00437469 8.52453125 -0.00533142 9.6640625 -0.00631714 C12.00781308 -0.00699913 14.35156553 -0.00514351 16.6953125 -0.00097656 C20.29691788 0.00437139 23.89839853 -0.00092093 27.5 -0.00732422 C29.77083361 -0.00666344 32.04166714 -0.00538229 34.3125 -0.00341797 C35.94058594 -0.00645432 35.94058594 -0.00645432 37.6015625 -0.009552 C38.59929687 -0.00639984 39.59703125 -0.00324768 40.625 0 C41.50800781 0.00079559 42.39101562 0.00159119 43.30078125 0.00241089 C45.3125 0.12939453 45.3125 0.12939453 46.3125 1.12939453 C46.41159302 3.46099508 46.44220504 5.79569395 46.4375 8.12939453 C46.44136719 10.04751953 46.44136719 10.04751953 46.4453125 12.00439453 C46.3125 15.12939453 46.3125 15.12939453 45.3125 16.12939453 C43.75250952 16.2278642 42.18809456 16.25738071 40.625 16.25878906 C39.62726563 16.26194122 38.62953125 16.26509338 37.6015625 16.26834106 C36.51617187 16.26631683 35.43078125 16.2642926 34.3125 16.26220703 C33.20648438 16.26316376 32.10046875 16.26412048 30.9609375 16.2651062 C28.61718692 16.2657882 26.27343447 16.26393257 23.9296875 16.25976562 C20.32808212 16.25441767 16.72660147 16.25971 13.125 16.26611328 C10.85416639 16.2654525 8.58333286 16.26417135 6.3125 16.26220703 C5.22710937 16.26423126 4.14171875 16.26625549 3.0234375 16.26834106 C2.02570312 16.2651889 1.02796875 16.26203674 0 16.25878906 C-0.88300781 16.25799347 -1.76601563 16.25719788 -2.67578125 16.25637817 C-4.6875 16.12939453 -4.6875 16.12939453 -5.6875 15.12939453 C-5.78659302 12.79779398 -5.81720504 10.46309512 -5.8125 8.12939453 C-5.81507812 6.85064453 -5.81765625 5.57189453 -5.8203125 4.25439453 C-5.61474066 -0.58258985 -4.40014154 0.00396454 0 0 Z "
        fill="#96C6FD" transform="translate(44.6875,103.87060546875)" />
    <path
        d="M0 0 C0.99773438 -0.00315216 1.99546875 -0.00630432 3.0234375 -0.009552 C4.65152344 -0.00651566 4.65152344 -0.00651566 6.3125 -0.00341797 C7.41851562 -0.00437469 8.52453125 -0.00533142 9.6640625 -0.00631714 C12.00781308 -0.00699913 14.35156553 -0.00514351 16.6953125 -0.00097656 C20.29691788 0.00437139 23.89839853 -0.00092093 27.5 -0.00732422 C29.77083361 -0.00666344 32.04166714 -0.00538229 34.3125 -0.00341797 C35.94058594 -0.00645432 35.94058594 -0.00645432 37.6015625 -0.009552 C38.59929687 -0.00639984 39.59703125 -0.00324768 40.625 0 C41.50800781 0.00079559 42.39101562 0.00159119 43.30078125 0.00241089 C45.3125 0.12939453 45.3125 0.12939453 46.3125 1.12939453 C46.41159302 3.46099508 46.44220504 5.79569395 46.4375 8.12939453 C46.44136719 10.04751953 46.44136719 10.04751953 46.4453125 12.00439453 C46.3125 15.12939453 46.3125 15.12939453 45.3125 16.12939453 C43.75250952 16.2278642 42.18809456 16.25738071 40.625 16.25878906 C39.62726563 16.26194122 38.62953125 16.26509338 37.6015625 16.26834106 C36.51617187 16.26631683 35.43078125 16.2642926 34.3125 16.26220703 C33.20648438 16.26316376 32.10046875 16.26412048 30.9609375 16.2651062 C28.61718692 16.2657882 26.27343447 16.26393257 23.9296875 16.25976562 C20.32808212 16.25441767 16.72660147 16.25971 13.125 16.26611328 C10.85416639 16.2654525 8.58333286 16.26417135 6.3125 16.26220703 C5.22710937 16.26423126 4.14171875 16.26625549 3.0234375 16.26834106 C2.02570312 16.2651889 1.02796875 16.26203674 0 16.25878906 C-0.88300781 16.25799347 -1.76601563 16.25719788 -2.67578125 16.25637817 C-4.6875 16.12939453 -4.6875 16.12939453 -5.6875 15.12939453 C-5.78659302 12.79779398 -5.81720504 10.46309512 -5.8125 8.12939453 C-5.81507812 6.85064453 -5.81765625 5.57189453 -5.8203125 4.25439453 C-5.61474066 -0.58258985 -4.40014154 0.00396454 0 0 Z "
        fill="#96C6FD" transform="translate(44.6875,78.87060546875)" />
    <path
        d="M0 0 C2.40400783 0.64222592 3.55197557 1.31192488 5.2890625 3.078125 C7.31946252 6.86820504 7.71799489 8.62995178 6.8671875 12.7421875 C5.66299027 15.88648027 4.10760821 17.04236202 1.1640625 18.578125 C-2.90585858 19.1595423 -5.06008286 18.98291872 -8.7109375 17.078125 C-11.16654449 14.1891756 -11.86182503 12.35706436 -12.0859375 8.6171875 C-11.73485381 5.75366113 -10.57740528 3.70492464 -8.5625 1.65625 C-5.73924516 -0.10668741 -3.27355333 -0.24086346 0 0 Z "
        fill="#2285CE" transform="translate(113.8359375,8.421875)" />
    <path
        d="M0 0 C2.4375 1.5625 2.4375 1.5625 4 4 C4.45377473 7.63019782 4.43699866 10.02317947 2.9375 13.375 C0.0716765 15.77859391 -2.31939225 15.87085587 -6 16 C-8.64816011 15.21270916 -9.62884529 14.47719891 -11.3125 12.3125 C-12.32922829 8.89259577 -11.87281149 6.42890226 -11 3 C-7.92160879 -0.67038952 -4.56677188 -0.57084649 0 0 Z "
        fill="#2284CF" transform="translate(19,10)" />
    <path
        d="M0 0 C0.99773438 0.02320312 1.99546875 0.04640625 3.0234375 0.0703125 C4.52777344 0.09738281 4.52777344 0.09738281 6.0625 0.125 C6.83335938 0.14820312 7.60421875 0.17140625 8.3984375 0.1953125 C8.7284375 1.1853125 9.0584375 2.1753125 9.3984375 3.1953125 C18.9684375 3.1953125 28.5384375 3.1953125 38.3984375 3.1953125 C38.3984375 3.8553125 38.3984375 4.5153125 38.3984375 5.1953125 C28.8284375 5.1953125 19.2584375 5.1953125 9.3984375 5.1953125 C9.0684375 6.1853125 8.7384375 7.1753125 8.3984375 8.1953125 C6.41934352 8.22217803 4.44014779 8.24164625 2.4609375 8.2578125 C1.35878906 8.26941406 0.25664063 8.28101562 -0.87890625 8.29296875 C-3.6015625 8.1953125 -3.6015625 8.1953125 -4.6015625 7.1953125 C-4.7890625 4.7578125 -4.7890625 4.7578125 -4.6015625 2.1953125 C-2.6015625 0.1953125 -2.6015625 0.1953125 0 0 Z "
        fill="#1F81CE" transform="translate(47.6015625,107.8046875)" />
    <path
        d="M0 0 C0.99773438 0.02320312 1.99546875 0.04640625 3.0234375 0.0703125 C4.52777344 0.09738281 4.52777344 0.09738281 6.0625 0.125 C6.83335938 0.14820312 7.60421875 0.17140625 8.3984375 0.1953125 C8.7284375 1.1853125 9.0584375 2.1753125 9.3984375 3.1953125 C18.9684375 3.1953125 28.5384375 3.1953125 38.3984375 3.1953125 C38.3984375 3.8553125 38.3984375 4.5153125 38.3984375 5.1953125 C28.8284375 5.1953125 19.2584375 5.1953125 9.3984375 5.1953125 C9.0684375 6.1853125 8.7384375 7.1753125 8.3984375 8.1953125 C6.41934352 8.22217803 4.44014779 8.24164625 2.4609375 8.2578125 C1.35878906 8.26941406 0.25664063 8.28101562 -0.87890625 8.29296875 C-3.6015625 8.1953125 -3.6015625 8.1953125 -4.6015625 7.1953125 C-4.7890625 4.7578125 -4.7890625 4.7578125 -4.6015625 2.1953125 C-2.6015625 0.1953125 -2.6015625 0.1953125 0 0 Z "
        fill="#1F81CE" transform="translate(47.6015625,82.8046875)" />
    <path
        d="M0 0 C1.9375 1.1875 1.9375 1.1875 3 3 C3.58989164 6.28653916 3.28037501 7.57382999 1.4375 10.375 C-1 12 -1 12 -4.625 11.9375 C-8 11 -8 11 -10 8 C-10.34940459 5.20476326 -10.37233787 3.6351646 -8.9375 1.1875 C-5.90624457 -0.67036623 -3.46577141 -0.37133265 0 0 Z "
        fill="#F1F7FB" transform="translate(115,12)" />
    <path d="M0 0 C9.9 0 19.8 0 30 0 C30 1.32 30 2.64 30 4 C20.1 4 10.2 4 0 4 C0 2.68 0 1.36 0 0 Z "
        fill="#E3EFF8" transform="translate(50,98)" />
    <path
        d="M0 0 C0.66 0.66 1.32 1.32 2 2 C1.625 5.625 1.625 5.625 1 9 C-4.41139241 10.32278481 -4.41139241 10.32278481 -6.9375 8.9375 C-8.52666796 6.03960549 -7.87523205 4.09697496 -7 1 C-4.48718205 -0.25640898 -2.78302919 -0.20872719 0 0 Z "
        fill="#EFF6FB" transform="translate(18,13)" />
    <path
        d="M0 0 C0.70125 0.00515625 1.4025 0.0103125 2.125 0.015625 C2.82625 0.01046875 3.5275 0.0053125 4.25 0 C6.125 0.265625 6.125 0.265625 8.125 2.265625 C8.125 3.585625 8.125 4.905625 8.125 6.265625 C7.135 6.265625 6.145 6.265625 5.125 6.265625 C4.795 6.925625 4.465 7.585625 4.125 8.265625 C1.79205225 8.30804223 -0.54202567 8.30655437 -2.875 8.265625 C-3.875 7.265625 -3.875 7.265625 -4.0625 4.828125 C-3.83649514 1.73939188 -3.19760078 0.45299344 0 0 Z "
        fill="#5DA4DC" transform="translate(46.875,107.734375)" />
    <path
        d="M0 0 C0.70125 0.00515625 1.4025 0.0103125 2.125 0.015625 C2.82625 0.01046875 3.5275 0.0053125 4.25 0 C6.125 0.265625 6.125 0.265625 8.125 2.265625 C8.125 3.585625 8.125 4.905625 8.125 6.265625 C7.135 6.265625 6.145 6.265625 5.125 6.265625 C4.795 6.925625 4.465 7.585625 4.125 8.265625 C1.79205225 8.30804223 -0.54202567 8.30655437 -2.875 8.265625 C-3.875 7.265625 -3.875 7.265625 -4.0625 4.828125 C-3.83649514 1.73939188 -3.19760078 0.45299344 0 0 Z "
        fill="#5DA4DC" transform="translate(46.875,82.734375)" />
    <path
        d="M0 0 C0 0.66 0 1.32 0 2 C-1.8253125 2.37125 -1.8253125 2.37125 -3.6875 2.75 C-8.34030552 3.91937767 -11.53654965 5.80482448 -14.25 9.875 C-15.19437868 12.55073958 -15.61731901 15.19367274 -16 18 C-16.99 18 -17.98 18 -19 18 C-19.63957212 12.88342302 -18.29181466 9.94664497 -15.48046875 5.8359375 C-10.91425811 0.17335438 -6.82999798 -0.47103434 0 0 Z "
        fill="#348DD2" transform="translate(51,12)" />
    <path
        d="M0 0 C1.98 0.495 1.98 0.495 4 1 C3.67 2.32 3.34 3.64 3 5 C1.68 4.67 0.36 4.34 -1 4 C-0.67 2.68 -0.34 1.36 0 0 Z "
        fill="#2083CD" transform="translate(97,97)" />
    <path
        d="M0 0 C1.98 0.495 1.98 0.495 4 1 C3.67 2.32 3.34 3.64 3 5 C1.68 4.67 0.36 4.34 -1 4 C-0.67 2.68 -0.34 1.36 0 0 Z "
        fill="#2083CD" transform="translate(117,87)" />
    <path
        d="M0 0 C1.98 0.495 1.98 0.495 4 1 C3.67 2.32 3.34 3.64 3 5 C1.68 4.67 0.36 4.34 -1 4 C-0.67 2.68 -0.34 1.36 0 0 Z "
        fill="#2083CD" transform="translate(27,82)" />
    <path
        d="M0 0 C1.98 0.495 1.98 0.495 4 1 C4 1.99 4 2.98 4 4 C3.01 4.33 2.02 4.66 1 5 C0.34 4.67 -0.32 4.34 -1 4 C-0.67 2.68 -0.34 1.36 0 0 Z "
        fill="#1A89CE" transform="translate(10,113)" />
    <path d="M0 0 C0 2.31 0 4.62 0 7 C-0.99 7 -1.98 7 -3 7 C-3 5.02 -3 3.04 -3 1 C-1 0 -1 0 0 0 Z "
        fill="#4798D7" transform="translate(35,23)" />
    <path d="M0 0 C1.32 0 2.64 0 4 0 C4 1.32 4 2.64 4 4 C2.68 4 1.36 4 0 4 C0 2.68 0 1.36 0 0 Z "
        fill="#1E81CE" transform="translate(115,34)" />
    <path d="M0 0 C1.32 0 2.64 0 4 0 C4 1.32 4 2.64 4 4 C2.68 4 1.36 4 0 4 C0 2.68 0 1.36 0 0 Z "
        fill="#1E81CE" transform="translate(10,34)" />
    <path d="M0 0 C1.32 0 2.64 0 4 0 C4 1.32 4 2.64 4 4 C2.68 4 1.36 4 0 4 C0 2.68 0 1.36 0 0 Z "
        fill="#1E81CE" transform="translate(95,9)" />
</svg>