<?xml version="1.0" encoding="UTF-8"?>
<svg version="1.1" xmlns="http://www.w3.org/2000/svg" width="64" height="64">
<path d="M0 0 C0.99 0 1.98 0 3 0 C3 1.98 3 3.96 3 6 C4.65 6 6.3 6 8 6 C8 4.02 8 2.04 8 0 C8.99 0 9.98 0 11 0 C11 1.98 11 3.96 11 6 C12.32 6 13.64 6 15 6 C15 4.35 15 2.7 15 1 C16.32 1 17.64 1 19 1 C19 2.65 19 4.3 19 6 C20.32 6 21.64 6 23 6 C23 4.02 23 2.04 23 0 C23.99 0 24.98 0 26 0 C26 1.98 26 3.96 26 6 C27.65 6 29.3 6 31 6 C31 4.02 31 2.04 31 0 C31.99 0 32.98 0 34 0 C34 1.98 34 3.96 34 6 C35.11375 5.95875 36.2275 5.9175 37.375 5.875 C41 6 41 6 43 8 C43.125 11.625 43.125 11.625 43 15 C44.98 15 46.96 15 49 15 C49 15.99 49 16.98 49 18 C47.02 18 45.04 18 43 18 C43 19.65 43 21.3 43 23 C44.98 23 46.96 23 49 23 C49 23.99 49 24.98 49 26 C47.02 26 45.04 26 43 26 C43 27.65 43 29.3 43 31 C44.98 31 46.96 31 49 31 C49 31.66 49 32.32 49 33 C47.02 33 45.04 33 43 33 C43 34.65 43 36.3 43 38 C44.98 38 46.96 38 49 38 C49 38.99 49 39.98 49 41 C47.02 41 45.04 41 43 41 C43 42.65 43 44.3 43 46 C44.98 46 46.96 46 49 46 C49 46.99 49 47.98 49 49 C47.02 49 45.04 49 43 49 C43.04125 50.11375 43.0825 51.2275 43.125 52.375 C43 56 43 56 41 58 C37.375 58.125 37.375 58.125 34 58 C34 59.98 34 61.96 34 64 C33.01 64 32.02 64 31 64 C31 62.02 31 60.04 31 58 C29.35 58 27.7 58 26 58 C26 59.98 26 61.96 26 64 C25.01 64 24.02 64 23 64 C23 62.02 23 60.04 23 58 C21.68 58 20.36 58 19 58 C19 59.65 19 61.3 19 63 C17.68 63 16.36 63 15 63 C15 61.35 15 59.7 15 58 C13.68 58 12.36 58 11 58 C11 59.98 11 61.96 11 64 C10.01 64 9.02 64 8 64 C8 62.02 8 60.04 8 58 C6.35 58 4.7 58 3 58 C3 59.98 3 61.96 3 64 C2.01 64 1.02 64 0 64 C0 62.02 0 60.04 0 58 C-1.11375 58.04125 -2.2275 58.0825 -3.375 58.125 C-7 58 -7 58 -9 56 C-9.125 52.375 -9.125 52.375 -9 49 C-10.98 49 -12.96 49 -15 49 C-15 48.01 -15 47.02 -15 46 C-13.02 46 -11.04 46 -9 46 C-9 44.35 -9 42.7 -9 41 C-10.98 41 -12.96 41 -15 41 C-15 40.01 -15 39.02 -15 38 C-13.02 38 -11.04 38 -9 38 C-9 36.35 -9 34.7 -9 33 C-10.98 33 -12.96 33 -15 33 C-15 32.34 -15 31.68 -15 31 C-13.02 31 -11.04 31 -9 31 C-9 29.35 -9 27.7 -9 26 C-10.98 26 -12.96 26 -15 26 C-15 25.01 -15 24.02 -15 23 C-13.02 23 -11.04 23 -9 23 C-9 21.35 -9 19.7 -9 18 C-10.98 18 -12.96 18 -15 18 C-15 17.01 -15 16.02 -15 15 C-13.02 15 -11.04 15 -9 15 C-9.04125 13.88625 -9.0825 12.7725 -9.125 11.625 C-9 8 -9 8 -7 6 C-3.375 5.875 -3.375 5.875 0 6 C0 4.02 0 2.04 0 0 Z M2 17 C2 26.9 2 36.8 2 47 C11.9 47 21.8 47 32 47 C32 37.1 32 27.2 32 17 C22.1 17 12.2 17 2 17 Z " fill="#54B8DD" transform="translate(15,0)"/>
<path d="M0 0 C9.24 0 18.48 0 28 0 C28 9.24 28 18.48 28 28 C18.76 28 9.52 28 0 28 C0 18.76 0 9.52 0 0 Z M16 4 C16 4.33 16 4.66 16 5 C18.31 5 20.62 5 23 5 C23 4.67 23 4.34 23 4 C20.69 4 18.38 4 16 4 Z M23 5 C23 7.31 23 9.62 23 12 C23.33 12 23.66 12 24 12 C24 9.69 24 7.38 24 5 C23.67 5 23.34 5 23 5 Z M4 16 C4 18.31 4 20.62 4 23 C4.33 23 4.66 23 5 23 C5 20.69 5 18.38 5 16 C4.67 16 4.34 16 4 16 Z M5 23 C5 23.33 5 23.66 5 24 C7.31 24 9.62 24 12 24 C12 23.67 12 23.34 12 23 C9.69 23 7.38 23 5 23 Z " fill="#55B7DD" transform="translate(18,18)"/>
</svg>
