<?xml version="1.0" encoding="UTF-8"?>
<svg version="1.1" xmlns="http://www.w3.org/2000/svg" width="128" height="128">
<path d="M0 0 C1.65 0 3.3 0 5 0 C5 4.29 5 8.58 5 13 C8.3 13 11.6 13 15 13 C15 9.04 15 5.08 15 1 C16.65 0.67 18.3 0.34 20 0 C20 4.29 20 8.58 20 13 C23.3 13 26.6 13 30 13 C29.98839844 12.22914062 29.97679687 11.45828125 29.96484375 10.6640625 C29.95582031 9.66117188 29.94679687 8.65828125 29.9375 7.625 C29.92589844 6.62726562 29.91429687 5.62953125 29.90234375 4.6015625 C30 2 30 2 31 0 C32.32 0 33.64 0 35 0 C36.32229189 2.64458379 36.09677194 4.67761301 36.0625 7.625 C36.05347656 8.62789062 36.04445313 9.63078125 36.03515625 10.6640625 C36.02355469 11.43492188 36.01195313 12.20578125 36 13 C39.3 13 42.6 13 46 13 C46 8.71 46 4.42 46 0 C47.65 0.33 49.3 0.66 51 1 C51 4.96 51 8.92 51 13 C54.3 13 57.6 13 61 13 C61 8.71 61 4.42 61 0 C62.65 0 64.3 0 66 0 C66 4.29 66 8.58 66 13 C66.96421875 12.95359375 67.9284375 12.9071875 68.921875 12.859375 C70.18515625 12.82328125 71.4484375 12.7871875 72.75 12.75 C74.00296875 12.70359375 75.2559375 12.6571875 76.546875 12.609375 C80 13 80 13 82.4375 14.5625 C84.58620255 17.91447598 84.39613718 20.3042961 84.25 24.25 C84.21390625 25.51328125 84.1778125 26.7765625 84.140625 28.078125 C84.09421875 29.04234375 84.0478125 30.0065625 84 31 C88.29 31 92.58 31 97 31 C97 32.65 97 34.3 97 36 C92.71 36 88.42 36 84 36 C84 39.3 84 42.6 84 46 C87.96 46 91.92 46 96 46 C96.495 48.475 96.495 48.475 97 51 C92.71 51 88.42 51 84 51 C84 54.63 84 58.26 84 62 C88.29 62 92.58 62 97 62 C97 63.32 97 64.64 97 66 C92.71 66 88.42 66 84 66 C84 69.63 84 73.26 84 77 C88.29 77 92.58 77 97 77 C96.67 78.65 96.34 80.3 96 82 C92.04 82 88.08 82 84 82 C84 85.3 84 88.6 84 92 C88.29 92 92.58 92 97 92 C97 93.65 97 95.3 97 97 C92.71 97 88.42 97 84 97 C84.04640625 97.96421875 84.0928125 98.9284375 84.140625 99.921875 C84.17671875 101.18515625 84.2128125 102.4484375 84.25 103.75 C84.29640625 105.00296875 84.3428125 106.2559375 84.390625 107.546875 C84 111 84 111 82.4375 113.4375 C79.08552402 115.58620255 76.6957039 115.39613718 72.75 115.25 C71.48671875 115.21390625 70.2234375 115.1778125 68.921875 115.140625 C67.95765625 115.09421875 66.9934375 115.0478125 66 115 C66 119.29 66 123.58 66 128 C64.35 128 62.7 128 61 128 C61 123.71 61 119.42 61 115 C57.7 115 54.4 115 51 115 C51 118.96 51 122.92 51 127 C49.35 127.33 47.7 127.66 46 128 C46 123.71 46 119.42 46 115 C42.7 115 39.4 115 36 115 C36.01160156 115.77085938 36.02320312 116.54171875 36.03515625 117.3359375 C36.04417969 118.33882813 36.05320312 119.34171875 36.0625 120.375 C36.07410156 121.37273437 36.08570312 122.37046875 36.09765625 123.3984375 C36 126 36 126 35 128 C33.68 128 32.36 128 31 128 C29.67770811 125.35541621 29.90322806 123.32238699 29.9375 120.375 C29.94652344 119.37210937 29.95554688 118.36921875 29.96484375 117.3359375 C29.97644531 116.56507812 29.98804688 115.79421875 30 115 C26.7 115 23.4 115 20 115 C20 119.29 20 123.58 20 128 C18.35 127.67 16.7 127.34 15 127 C15 123.04 15 119.08 15 115 C11.7 115 8.4 115 5 115 C5 119.29 5 123.58 5 128 C3.35 128 1.7 128 0 128 C0 123.71 0 119.42 0 115 C-0.96421875 115.04640625 -1.9284375 115.0928125 -2.921875 115.140625 C-4.18515625 115.17671875 -5.4484375 115.2128125 -6.75 115.25 C-8.00296875 115.29640625 -9.2559375 115.3428125 -10.546875 115.390625 C-14 115 -14 115 -16.4375 113.4375 C-18.58620255 110.08552402 -18.39613718 107.6957039 -18.25 103.75 C-18.21390625 102.48671875 -18.1778125 101.2234375 -18.140625 99.921875 C-18.09421875 98.95765625 -18.0478125 97.9934375 -18 97 C-22.29 97 -26.58 97 -31 97 C-31 95.35 -31 93.7 -31 92 C-26.71 92 -22.42 92 -18 92 C-18 88.7 -18 85.4 -18 82 C-21.96 82 -25.92 82 -30 82 C-30.495 79.525 -30.495 79.525 -31 77 C-26.71 77 -22.42 77 -18 77 C-18 73.37 -18 69.74 -18 66 C-22.29 66 -26.58 66 -31 66 C-31 64.68 -31 63.36 -31 62 C-26.71 62 -22.42 62 -18 62 C-18 58.37 -18 54.74 -18 51 C-22.29 51 -26.58 51 -31 51 C-30.67 49.35 -30.34 47.7 -30 46 C-26.04 46 -22.08 46 -18 46 C-18 42.7 -18 39.4 -18 36 C-22.29 36 -26.58 36 -31 36 C-31 34.35 -31 32.7 -31 31 C-26.71 31 -22.42 31 -18 31 C-18.04640625 30.03578125 -18.0928125 29.0715625 -18.140625 28.078125 C-18.17671875 26.81484375 -18.2128125 25.5515625 -18.25 24.25 C-18.29640625 22.99703125 -18.3428125 21.7440625 -18.390625 20.453125 C-18 17 -18 17 -16.4375 14.5625 C-13.08552402 12.41379745 -10.6957039 12.60386282 -6.75 12.75 C-5.48671875 12.78609375 -4.2234375 12.8221875 -2.921875 12.859375 C-1.47554687 12.92898438 -1.47554687 12.92898438 0 13 C0 8.71 0 4.42 0 0 Z M2 33 C2 53.46 2 73.92 2 95 C22.46 95 42.92 95 64 95 C64 74.54 64 54.08 64 33 C43.54 33 23.08 33 2 33 Z " fill="#55B7DD" transform="translate(31,0)"/>
<path d="M0 0 C18.48 0 36.96 0 56 0 C56 18.48 56 36.96 56 56 C37.52 56 19.04 56 0 56 C0 37.52 0 19.04 0 0 Z M32 8 C31.67 8.99 31.34 9.98 31 11 C35.62 11 40.24 11 45 11 C45 15.62 45 20.24 45 25 C45.99 24.67 46.98 24.34 48 24 C48.02685095 21.52076199 48.04676547 19.0418116 48.0625 16.5625 C48.07087891 15.85544922 48.07925781 15.14839844 48.08789062 14.41992188 C48.09653588 12.61306441 48.05220011 10.80612397 48 9 C46.83722968 7.60843516 46.83722968 7.60843516 43.62109375 7.90234375 C42.22652923 7.90901631 40.83198257 7.92097468 39.4375 7.9375 C38.72658203 7.94201172 38.01566406 7.94652344 37.28320312 7.95117188 C35.52209987 7.96299136 33.76103964 7.98092737 32 8 Z M9 31 C7.24440058 32.75559942 7.86778081 35.03582442 7.86328125 37.37109375 C7.86714844 38.07363281 7.87101562 38.77617188 7.875 39.5 C7.87113281 40.20253906 7.86726563 40.90507813 7.86328125 41.62890625 C7.55609069 45.10428808 7.55609069 45.10428808 9 48 C11.53049402 48.07313567 14.03304837 48.09247527 16.5625 48.0625 C17.27341797 48.05798828 17.98433594 48.05347656 18.71679688 48.04882812 C20.47790013 48.03700864 22.23896036 48.01907263 24 48 C24.33 47.01 24.66 46.02 25 45 C20.38 45 15.76 45 11 45 C11 40.38 11 35.76 11 31 C10.34 31 9.68 31 9 31 Z " fill="#55B7DC" transform="translate(36,36)"/>
</svg>
